<?xml version="1.0"?>
<svg width="640" height="480" xmlns="http://www.w3.org/2000/svg" xmlns:svg="http://www.w3.org/2000/svg">
 <!-- Created with SVG-edit - http://svg-edit.googlecode.com/ -->
 <g>
  <title>Layer 1</title>
  <line fill="none" stroke="#000000" stroke-dasharray="null" stroke-linejoin="null" stroke-linecap="null" opacity="0.5" x1="236" y1="174" x2="236" y2="174" id="svg_2"/>
  <line fill="none" stroke="#000000" stroke-dasharray="null" stroke-linejoin="null" stroke-linecap="null" opacity="0.5" x1="228" y1="201" x2="228" y2="201" id="svg_3"/>
  <line fill="none" stroke="#000000" stroke-dasharray="null" stroke-linejoin="null" stroke-linecap="null" opacity="0.5" x1="249" y1="186" x2="249" y2="186" id="svg_4"/>
  <line fill="none" stroke="#000000" stroke-dasharray="null" stroke-linejoin="null" stroke-linecap="null" opacity="0.5" x1="248" y1="269" x2="248" y2="269" id="svg_5"/>
  <line fill="none" stroke="#000000" stroke-dasharray="null" stroke-linejoin="null" stroke-linecap="null" opacity="0.5" x1="202" y1="156" x2="202" y2="156" id="svg_6"/>
  <line fill="none" stroke="#000000" stroke-dasharray="null" stroke-linejoin="null" stroke-linecap="null" opacity="0.5" x1="202" y1="295" x2="202" y2="295" id="svg_7"/>
  <line fill="none" stroke="#000000" stroke-dasharray="null" stroke-linejoin="null" stroke-linecap="null" opacity="0.5" x1="204" y1="208" x2="204" y2="208" id="svg_9"/>
  <rect fill="#ff436d" stroke="#000000" stroke-width="0" stroke-dasharray="null" stroke-linejoin="null" stroke-linecap="null" opacity="0.5" x="252" y="181" width="0" height="0" id="svg_10"/>
  <rect fill="#ff436d" stroke="#000000" stroke-width="0" stroke-dasharray="null" stroke-linejoin="null" stroke-linecap="null" opacity="0.5" x="260" y="280" width="0" height="0" id="svg_11"/>
  <rect fill="#ff436d" stroke="#000000" stroke-width="0" stroke-dasharray="null" stroke-linejoin="null" stroke-linecap="null" opacity="0.5" x="313" y="113" width="0" height="0" id="svg_12"/>
  <rect fill="#ff436d" stroke="#000000" stroke-width="0" stroke-dasharray="null" stroke-linejoin="null" stroke-linecap="null" opacity="0.5" x="314" y="117" width="0" height="0" id="svg_13"/>
  <rect fill="#ff436d" stroke="#000000" stroke-width="0" stroke-dasharray="null" stroke-linejoin="null" stroke-linecap="null" opacity="0.5" x="190" y="193" width="0" height="0" id="svg_14"/>
  <rect fill="#ff436d" stroke="#000000" stroke-width="0" stroke-dasharray="null" stroke-linejoin="null" stroke-linecap="null" opacity="0.5" x="-107" y="-10" width="0" height="0" id="svg_15"/>
  <rect fill="#ff436d" stroke="#000000" stroke-width="0" stroke-dasharray="null" stroke-linejoin="null" stroke-linecap="null" opacity="0.5" x="180" y="175" width="0" height="0" id="svg_16"/>
  <rect fill="#ff436d" stroke="#000000" stroke-width="0" stroke-dasharray="null" stroke-linejoin="null" stroke-linecap="null" opacity="0.5" x="281" y="290" width="0" height="0" id="svg_17"/>
  <rect fill="#ff436d" stroke="#000000" stroke-width="0" stroke-dasharray="null" stroke-linejoin="null" stroke-linecap="null" opacity="0.5" x="281" y="290" width="0" height="0" id="svg_18"/>
  <rect fill="#ff436d" stroke="#000000" stroke-width="0" stroke-dasharray="null" stroke-linejoin="null" stroke-linecap="null" opacity="0.5" x="281" y="290" width="0" height="0" id="svg_19"/>
  <rect fill="#ff436d" stroke="#000000" stroke-width="0" stroke-dasharray="null" stroke-linejoin="null" stroke-linecap="null" opacity="0.5" x="281" y="107" width="0" height="0" id="svg_20"/>
  <path stroke="#000000" id="svg_31" d="m273.775024,211.272034l30.25769,0l0,-29.577026l28.484772,0l0,29.577026l30.257507,0l0,27.845947l-30.257507,0l0,29.577026l-28.484772,0l0,-29.577026l-30.25769,0l0,-27.845947z" stroke-linecap="null" stroke-linejoin="null" stroke-dasharray="null" stroke-width="0" fill="#ff436d"/>
 </g>
</svg>